<?xml version="1.0" encoding="utf-8"?>
<!-- Generator: Adobe Illustrator 16.0.3, SVG Export Plug-In . SVG Version: 6.00 Build 0)  -->
<!DOCTYPE svg PUBLIC "-//W3C//DTD SVG 1.1//EN" "http://www.w3.org/Graphics/SVG/1.1/DTD/svg11.dtd">
<svg version="1.1" id="Layer_1" xmlns="http://www.w3.org/2000/svg" xmlns:xlink="http://www.w3.org/1999/xlink" x="0px" y="0px"
	 width="1080px" height="1080px" viewBox="0 0 1080 1080" enable-background="new 0 0 1080 1080" xml:space="preserve">
<g>
	<path fill="#FFFFFF" stroke="#FFFFFF" stroke-width="2" stroke-miterlimit="10" d="M995.477,0.15H84.525
		c-46.623,0-84.374,37.751-84.374,84.374v910.951c0,46.623,37.751,84.374,84.374,84.374h910.951
		c46.623,0,84.372-37.751,84.372-84.374V84.524C1079.849,37.901,1042.1,0.15,995.477,0.15z M1016.598,995.476
		c0,11.622-9.502,21.122-21.121,21.122H84.525c-11.622,0-21.123-9.5-21.123-21.122V84.524c0-11.62,9.501-21.122,21.123-21.122
		h910.951c11.619,0,21.121,9.501,21.121,21.122V995.476z"/>
	<g>
		<path fill="#FFFFFF" d="M872.956,457.233c-15.045-35.329-34.049-61.202-57.36-77.271c-22.985-16.535-49.092-24.546-78.318-24.15
			c-48.556,0-88.008,24.15-118.702,72.334c-30.344,48.23-45.69,117.42-45.69,208.082c0,96.461,17.045,166.117,50.814,209.037
			c33.813,42.852,72.707,64.253,117,64.253c53.61,0,95.064-25.407,124.897-76.362c19.026-32.139,29.785-63.812,32.067-94.645
			h-88.589c-5.077,15.65-11.063,27.667-17.862,36.19c-12.459,16.069-28.668,24.08-48.254,24.08
			c-18.771,0-34.653-6.706-47.999-19.656c-21.844-21.006-33.207-58.011-34.652-110.246h241.897
			c0.581-45.133-0.535-79.53-2.817-103.657C895.382,524.164,886.625,487.974,872.956,457.233z M662.637,578.636
			c3.4-33.931,11.04-60.713,23.266-80.811c12.18-19.655,29.507-29.926,51.677-29.926c20.424,0,37.728,9.363,51.63,28.133
			c13.647,18.793,21.311,46.484,22.986,82.604H662.637z"/>
		<rect x="640.188" y="218.271" fill="#FFFFFF" width="192.501" height="87.937"/>
		<path fill="#FFFFFF" d="M474.653,513.009c15.068-12.063,26.712-25.477,34.373-40.195c13.903-26.363,20.727-61.179,20.727-104.076
			c0-41.989-6.823-78.156-20.446-108.035c-22.986-49.092-61.901-74.127-116.396-75.525H175.745v706.945h202.074
			c23.031,0,44.016-3.122,63.625-9.386c19.563-6.729,36.655-18.305,50.814-35.679c12.81-14.787,23.312-33.511,31.812-55.402
			c13.602-33.069,20.169-70.541,20.169-112.553c0-40.615-5.985-75.036-17.605-103.61
			C514.988,546.917,497.663,526.423,474.653,513.009z M265.15,308.024h97.648c21.564,0,39.194,4.053,53.097,11.179
			c16.186,10.736,24.15,32.161,24.15,65.161c0,29.53-5.961,50.443-18.211,62.086c-12.203,11.622-27.783,17.443-47.416,17.443H265.15
			V308.024z M419.855,756.35c-10.806,8.478-25.804,12.506-45.437,12.506H265.15V580.429h110.714
			c19.329,0.466,34.023,4.448,44.854,12.063c19.328,13.811,28.713,39.312,28.713,75.896
			C449.431,711.729,439.721,740.724,419.855,756.35z"/>
	</g>
</g>
</svg>
