<?xml version="1.0" encoding="utf-8"?>
<!-- Generator: Adobe Illustrator 16.0.3, SVG Export Plug-In . SVG Version: 6.00 Build 0)  -->
<!DOCTYPE svg PUBLIC "-//W3C//DTD SVG 1.1//EN" "http://www.w3.org/Graphics/SVG/1.1/DTD/svg11.dtd">
<svg version="1.1" id="Capa_1" xmlns="http://www.w3.org/2000/svg" xmlns:xlink="http://www.w3.org/1999/xlink" x="0px" y="0px"
	 width="800px" height="800px" viewBox="0 0 800 800" enable-background="new 0 0 800 800" xml:space="preserve">
<title>github [#142]</title>
<desc>Created with Sketch.</desc>
<g>
	<title>github [#142]</title>
	<desc>Created with Sketch.</desc>
	<g id="Page-1">
		<g id="Dribbble-Light-Preview" transform="translate(-140.000000, -7559.000000)">
			<g id="icons" transform="translate(56.000000, 160.000000)">
				<path id="github-_x5B__x23_142_x5D_" fill="#FFFFFF" d="M483.866,7400.748c221.041,0,400.181,183.679,400.181,410.298
					c0,181.251-114.53,334.993-273.438,389.306c-20.298,4.025-27.494-8.766-27.494-19.706c0-13.515,0.495-57.71,0.495-112.616
					c0-38.237-12.805-63.207-27.18-75.946c89.117-10.166,182.736-44.872,182.736-202.442c0-44.822-15.494-81.409-41.19-110.141
					c4.159-10.364,17.889-52.1-3.928-108.606c0,0-33.533-10.99-109.909,42.066c-31.982-9.077-66.244-13.647-100.272-13.796
					c-33.997,0.149-68.223,4.72-100.141,13.796c-76.491-53.057-110.09-42.066-110.09-42.066
					c-21.735,56.507-8.021,98.243-3.878,108.606c-25.58,28.732-41.224,65.318-41.224,110.141
					c0,157.191,93.438,192.392,182.308,202.772c-11.421,10.248-21.818,28.335-25.398,54.839
					c-22.824,10.513-80.767,28.633-116.445-34.062c0,0-21.19-39.442-61.342-42.313c0,0-39.03-0.513-2.739,24.936
					c0,0,26.189,12.608,44.442,60.021c0,0,23.452,73.256,134.781,48.437c0.231,34.276,0.56,66.621,0.56,76.375
					c0,10.843-7.344,23.533-27.328,19.737c-159.024-54.229-273.669-208.053-273.669-389.337
					C83.703,7584.427,262.893,7400.748,483.866,7400.748"/>
			</g>
		</g>
	</g>
</g>
</svg>
