<?xml version="1.0" encoding="utf-8"?>
<!-- Generator: Adobe Illustrator 16.0.3, SVG Export Plug-In . SVG Version: 6.00 Build 0)  -->
<!DOCTYPE svg PUBLIC "-//W3C//DTD SVG 1.1//EN" "http://www.w3.org/Graphics/SVG/1.1/DTD/svg11.dtd">
<svg version="1.1" id="Capa_1" xmlns="http://www.w3.org/2000/svg" xmlns:xlink="http://www.w3.org/1999/xlink" x="0px" y="0px"
	 width="800px" height="800px" viewBox="0 0 800 800" enable-background="new 0 0 800 800" xml:space="preserve">
<g>
	<path fill="#FFFFFF" d="M690.041,1.206c60.063,0,108.752,48.707,108.752,108.77v580.065c0,60.063-48.689,108.753-108.752,108.753
		H109.977c-60.081,0-108.77-48.689-108.77-108.753V109.976c0-60.063,48.689-108.77,108.77-108.77H690.041z"/>
	<path d="M690.041,73.708c20.011,0,36.251,16.241,36.251,36.268v580.065c0,20.01-16.24,36.251-36.251,36.251H109.977
		c-20.043,0-36.252-16.241-36.252-36.251V109.976c0-20.026,16.209-36.268,36.252-36.268H690.041z"/>
	<path fill="#FFFFFF" d="M200.604,254.979c30.023,0,54.375-24.353,54.375-54.376c0-30.04-24.353-54.376-54.375-54.376
		s-54.375,24.336-54.375,54.376C146.228,230.626,170.581,254.979,200.604,254.979z"/>
	<path fill="#FFFFFF" d="M146.228,327.481c0-20.01,16.223-36.25,36.25-36.25h36.25c20.027,0,36.25,16.24,36.25,36.25v290.058
		c0,20.01-16.223,36.251-36.25,36.251h-36.25c-20.027,0-36.25-16.241-36.25-36.251V327.481z"/>
	<path fill="#FFFFFF" d="M363.733,653.79h36.25c20.026,0,36.251-16.241,36.251-36.251V454.377
		c0-54.377,108.786-90.645,108.786-18.127v181.289c0,20.01,16.224,36.251,36.25,36.251h36.253c20.025,0,36.267-16.241,36.267-36.251
		V400c0-72.519-54.394-108.769-126.895-108.769c-72.518,0-90.661,54.375-90.661,54.375v-18.125c0-20.01-16.225-36.25-36.251-36.25
		h-36.25c-19.994,0-36.25,16.24-36.25,36.25v290.058C327.482,637.549,343.739,653.79,363.733,653.79z"/>
</g>
</svg>
