<?xml version="1.0" encoding="utf-8"?>
<!-- Generator: Adobe Illustrator 16.0.3, SVG Export Plug-In . SVG Version: 6.00 Build 0)  -->
<!DOCTYPE svg PUBLIC "-//W3C//DTD SVG 1.1//EN" "http://www.w3.org/Graphics/SVG/1.1/DTD/svg11.dtd">
<svg version="1.1" xmlns="http://www.w3.org/2000/svg" xmlns:xlink="http://www.w3.org/1999/xlink" x="0px" y="0px" width="800px"
	 height="800px" viewBox="0 0 800 800" enable-background="new 0 0 800 800" xml:space="preserve">
<g id="Capa_2" display="none">
	<rect x="1.346" display="inline" width="798.654" height="800"/>
</g>
<g id="Capa_1">
	<g>
		<path fill="none" stroke="#FFFFFF" stroke-width="75" stroke-linecap="round" stroke-linejoin="round" d="M738.27,613.644
			L501.724,399.992 M298.261,399.992L61.73,613.644 M43.923,221.957l290.729,203.524c23.55,16.479,35.318,24.713,48.129,27.905
			c11.305,2.819,23.133,2.819,34.439,0c12.795-3.192,24.578-11.426,48.129-27.905l290.729-203.524 M214.829,684.86h370.328
			c59.837,0,89.74,0,112.59-11.647c20.104-10.23,36.437-26.578,46.684-46.684c11.647-22.85,11.647-52.753,11.647-112.59V286.061
			c0-59.837,0-89.74-11.647-112.604c-10.247-20.09-26.579-36.437-46.684-46.668c-22.85-11.648-52.753-11.648-112.59-11.648H214.829
			c-59.822,0-89.726,0-112.575,11.648c-20.105,10.231-36.451,26.578-46.682,46.668c-11.648,22.864-11.648,52.768-11.648,112.604
			v227.879c0,59.837,0,89.74,11.648,112.59c10.231,20.105,26.577,36.453,46.682,46.684
			C125.103,684.86,155.006,684.86,214.829,684.86z"/>
	</g>
</g>
</svg>
